<svg xmlns="http://www.w3.org/2000/svg" width="320" height="320" viewBox="0 0 320 320" role="img" aria-label="placeholder qr">
  <rect width="320" height="320" fill="#fff"/>
  <rect x="20" y="20" width="280" height="280" fill="none" stroke="#111" stroke-width="8"/>
  <g fill="#111">
    <rect x="40" y="40" width="60" height="60"/>
    <rect x="220" y="40" width="60" height="60"/>
    <rect x="40" y="220" width="60" height="60"/>
    <rect x="130" y="130" width="20" height="20"/>
    <rect x="160" y="130" width="20" height="20"/>
    <rect x="190" y="130" width="20" height="20"/>
    <rect x="130" y="160" width="20" height="20"/>
    <rect x="190" y="160" width="20" height="20"/>
    <rect x="130" y="190" width="20" height="20"/>
    <rect x="160" y="190" width="20" height="20"/>
    <rect x="220" y="220" width="20" height="20"/>
    <rect x="250" y="220" width="20" height="20"/>
    <rect x="220" y="250" width="20" height="20"/>
    <rect x="250" y="250" width="20" height="20"/>
  </g>
</svg>
